<svg xmlns="http://www.w3.org/2000/svg" width="800" height="800" viewBox="0 0 50.8 50.8" xml:space="preserve"><path d="M38.801 30.03 29.37 36.5v-3.692H18.785v5.557c0 3.307 3.307 6.614 6.615 6.614h18.52V24.871c0-3.308-3.306-6.615-6.614-6.615h-18.52v9.26h10.583v-3.942L38.8 30.03" style="fill:none;stroke:#00384e;stroke-width:1.016;stroke-linecap:round;stroke-linejoin:round;stroke-dasharray:none;stroke-opacity:1"/><path d="M33.614 11.113H12.171V34.13" style="fill:none;stroke:#00384e;stroke-width:1.016;stroke-linecap:round;stroke-linejoin:round;stroke-dasharray:none;stroke-opacity:1"/><path d="M6.88 5.82v21.697c0 1.299.699 2.022 2.02 3.344l11.248 11.247M6.88 5.82l20.527.092c1.3.005 2.094.632 3.344 2.02l11.582 12.864" style="fill:none;stroke:#00384e;stroke-width:1.016;stroke-linecap:round;stroke-linejoin:round;stroke-dasharray:none;stroke-opacity:1"/><path style="color:#000;font-style:normal;font-variant:normal;font-weight:400;font-stretch:normal;font-size:medium;line-height:normal;font-family:sans-serif;font-variant-ligatures:normal;font-variant-position:normal;font-variant-caps:normal;font-variant-numeric:normal;font-variant-alternates:normal;font-feature-settings:normal;text-indent:0;text-align:start;text-decoration:none;text-decoration-line:none;text-decoration-style:solid;text-decoration-color:#000;letter-spacing:normal;word-spacing:normal;text-transform:none;writing-mode:lr-tb;direction:ltr;text-orientation:mixed;dominant-baseline:auto;baseline-shift:baseline;text-anchor:start;white-space:normal;shape-padding:0;clip-rule:nonzero;display:inline;overflow:visible;visibility:visible;opacity:1;isolation:auto;mix-blend-mode:normal;color-interpolation:sRGB;color-interpolation-filters:linearRGB;solid-color:#000;solid-opacity:1;vector-effect:none;fill:#cb4f24;fill-opacity:1;fill-rule:nonzero;stroke:none;stroke-width:14.20000076;stroke-linecap:butt;stroke-linejoin:miter;stroke-miterlimit:4;stroke-dasharray:none;stroke-dashoffset:0;stroke-opacity:1;color-rendering:auto;image-rendering:auto;shape-rendering:auto;text-rendering:auto;enable-background:accumulate" d="m215.121 84.646 10.242 11.749 75.54 86.771.001.15h.13l93.558 107.47-.338 59.609 123.248-.124-2-63.115-169.6-202.51zm32.67 16.297h92.104l56.093 65.627-90.265.51zm161.684 81.73 80.666 96.335-86.54.513-83.841-96.316zm92.058 112.573 1.297 40.846-94.305.092.221-40.364z" transform="scale(.0635)"/></svg>